<?xml version="1.0" encoding="utf-8"?>
<!-- Generator: Adobe Illustrator 25.2.3, SVG Export Plug-In . SVG Version: 6.00 Build 0)  -->
<svg version="1.1" id="Layer_1" xmlns="http://www.w3.org/2000/svg" xmlns:xlink="http://www.w3.org/1999/xlink" x="0px" y="0px"
	 viewBox="0 0 273 62" style="enable-background:new 0 0 273 62;" xml:space="preserve">
<style type="text/css">
	.st0{fill:#43AF49;}
	.st1{fill:#FFFFFF;}
</style>
<path class="st0" d="M59.2,30.9c0,15.9-12.9,28.8-28.8,28.8S1.7,46.7,1.7,30.9C1.7,15,14.6,2.1,30.5,2.1S59.2,15,59.2,30.9"/>
<g>
	<rect x="80.7" y="18" class="st1" width="1.7" height="22.8"/>
</g>
<g>
	<polygon class="st1" points="102.3,19.5 95.5,19.5 95.5,40.8 93.8,40.8 93.8,19.5 87,19.5 87,18 102.3,18 	"/>
</g>
<g>
	<path class="st1" d="M122.5,18c2.4,0,4.3,0.7,5.7,2.1c2.2,2.2,2.2,5.9,2.2,9.3c0,3.4,0,7.1-2.2,9.3c-1.4,1.4-3.3,2.1-5.7,2.1h-7.6
		V18H122.5z M116.6,19.5v19.7h5.5c1.8,0,3.6-0.4,4.9-1.8c1.7-1.8,1.7-5.1,1.7-8.1c0-3,0-6.3-1.7-8.1c-1.3-1.4-3.1-1.8-4.9-1.8H116.6
		z"/>
</g>
<g>
	<path class="st1" d="M137.6,20h-2v-2h2V20z M137.4,40.8h-1.6V25.4h1.6V40.8z"/>
</g>
<path class="st1" d="M152.6,27.3v-2h1.6v16.3c0,3.9-2.3,6.7-6.3,6.7c-2.3,0-3.5-0.6-5.1-2l1.1-1.1c1.2,1.1,2,1.7,4,1.7
	c3.2,0,4.7-2.3,4.7-5.3v-2.7c-1.4,1.8-2.8,2.2-4.6,2.2c-1.6,0-3-0.5-3.8-1.3c-1.6-1.6-2-4.1-2-6.6c0-2.4,0.4-5,2-6.6
	c0.8-0.8,2.1-1.3,3.8-1.3C149.7,25.2,151.2,25.6,152.6,27.3 M143.9,33.1c0,3.2,0.6,6.5,4.3,6.5c3.8,0,4.3-3.3,4.3-6.5
	c0-3.2-0.6-6.5-4.3-6.5C144.4,26.6,143.9,29.9,143.9,33.1"/>
<g>
	<path class="st1" d="M161.6,20h-2v-2h2V20z M161.4,40.8h-1.6V25.4h1.6V40.8z"/>
</g>
<g>
	<path class="st1" d="M169.3,25.4h3.5v1.2h-3.5v10.2c0,1.6,0.7,2.6,2.4,2.6h1.1v1.4h-1.4c-2.4,0-3.7-1.7-3.7-4V26.6h-2.1v-1.2h2.1
		v-4.9h1.6V25.4z"/>
</g>
<path class="st1" d="M188.1,30.2v10.5h-1.6v-1.5c-1.3,1.3-2.5,1.7-4.7,1.7c-2.3,0-3.5-0.4-4.5-1.4c-0.7-0.7-1.1-1.9-1.1-3
	c0-2.8,2-4.4,5.4-4.4h5v-1.7c0-2.5-1.2-3.8-4.3-3.8c-2.2,0-3.3,0.5-4.2,1.9l-1.2-1c1.3-1.8,2.9-2.4,5.4-2.4
	C186.3,25.2,188.1,27,188.1,30.2 M181.7,33.4c-2.6,0-3.9,1-3.9,3.1c0,2,1.2,3,4,3c1.4,0,2.7-0.1,3.8-1.2c0.6-0.5,0.9-1.5,0.9-2.9v-2
	H181.7z"/>
<g>
	<path class="st1" d="M195.2,36.7c0,1.8,0.5,2.6,2.4,2.6h1.1v1.4h-1.4c-2.5,0-3.7-1.6-3.7-4V18h1.6V36.7z"/>
</g>
<g>
	<polygon class="st1" points="224.1,19.5 217.3,19.5 217.3,40.8 215.6,40.8 215.6,19.5 208.8,19.5 208.8,18 224.1,18 	"/>
</g>
<g>
	<polygon class="st1" points="240.4,40.8 238.7,40.8 234.4,27.2 230.1,40.8 228.4,40.8 223.5,25.4 225.3,25.4 229.2,38.9 
		233.6,25.4 235.2,25.4 239.5,38.9 243.5,25.4 245.3,25.4 	"/>
</g>
<g>
	<path class="st1" d="M250.9,20h-2v-2h2V20z M250.7,40.8H249V25.4h1.6V40.8z"/>
</g>
<path class="st1" d="M266.5,26.6c1.1,1,1.6,2.5,1.6,4.3v9.8h-1.6v-9.6c0-3-1.5-4.6-4.2-4.6c-2.8,0-4.3,1.7-4.3,4.6v9.6h-1.6V25.4
	h1.6v1.8c1.2-1.3,2.7-2,4.5-2C264.1,25.2,265.5,25.7,266.5,26.6"/>
<path class="st1" d="M17.8,31.7c0.5-0.9,0.2-2.1-0.7-2.7c-0.9-0.5-2.1-0.2-2.7,0.7c-0.5,0.9-0.2,2.1,0.7,2.7
	C16.1,32.9,17.3,32.6,17.8,31.7"/>
<path class="st1" d="M11.2,31.2c0.3-0.5,0.1-1.1-0.4-1.4c-0.5-0.3-1.1-0.1-1.4,0.4c-0.3,0.5-0.1,1.1,0.4,1.4
	C10.3,31.8,11,31.7,11.2,31.2"/>
<path class="st1" d="M23.3,20.4c0.3,0,0.7-0.1,0.9-0.3v0c0,0,0,0,0,0c0,0,0,0,0,0h0c0.3-0.2,0.5-0.4,0.7-0.7
	c0.6-0.9,0.2-2.1-0.7-2.7c-0.6-0.4-1.4-0.3-2,0l0,0c0,0,0,0,0,0c0,0,0,0,0,0l0,0c-0.6,0.3-1,1-1,1.7C21.3,19.5,22.2,20.4,23.3,20.4"
	/>
<path class="st1" d="M20.4,14.5c0.2,0,0.3-0.1,0.5-0.1c0,0,0,0,0,0c0,0,0,0,0,0l0,0c0.1-0.1,0.3-0.2,0.4-0.4
	c0.3-0.5,0.1-1.1-0.4-1.4c-0.3-0.2-0.7-0.2-1,0l0,0c0,0,0,0,0,0c0,0,0,0,0,0v0c-0.3,0.2-0.5,0.5-0.5,0.9
	C19.4,14,19.8,14.5,20.4,14.5"/>
<path class="st1" d="M15.7,24.2c0.1,0,0.2,0,0.2,0l0.1,0c0,0,0.1,0,0.1,0c1-0.2,1.8-0.1,2.4,0.2c0.8,0.4,1.3,1.3,1.6,2.6
	c0,0,0,0,0,0c0.3,1.2,1.3,2,2.5,2c1.4,0,2.6-1.2,2.6-2.6c0-0.7-0.3-1.3-0.8-1.8c-0.5-0.5-1.1-0.8-1.8-0.7c-0.3,0-0.6,0.1-0.9,0.2
	c0,0,0,0-0.1,0c-3,1-4-0.5-4.5-1.9c0,0,0,0-0.1-0.1C17,21.4,16.4,21,15.7,21c-0.9,0-1.6,0.7-1.6,1.6C14.1,23.5,14.8,24.3,15.7,24.2"
	/>
<path class="st1" d="M37.5,20.3c1.1,0,2-0.9,2-1.9c0-1.1-0.9-2-1.9-2c-1.1,0-2,0.9-2,1.9C35.5,19.4,36.4,20.3,37.5,20.3"/>
<path class="st1" d="M40.3,14.4c0.6,0,1-0.5,1-1c0-0.6-0.5-1-1-1c-0.6,0-1,0.5-1,1C39.3,13.9,39.8,14.4,40.3,14.4"/>
<path class="st1" d="M29.2,24.2c1.2,0.7,2.8,0.3,3.5-0.9c0.6-1,0.4-2.4-0.5-3.2c0,0,0,0,0,0c-1-0.9-1.5-1.8-1.5-2.7
	c0-0.7,0.3-1.4,1-2.2c0,0,0-0.1,0.1-0.1l0.1-0.1c0.1-0.1,0.1-0.1,0.2-0.2c0.5-0.8,0.2-1.8-0.6-2.2c-0.8-0.5-1.8-0.2-2.2,0.6
	c-0.3,0.6-0.3,1.3,0.2,1.9c0,0,0,0.1,0,0.1c1,1.2,1.8,2.8-0.6,4.9c0,0,0,0,0,0.1c-0.2,0.2-0.4,0.4-0.6,0.7c-0.3,0.6-0.4,1.3-0.3,2
	C28.2,23.3,28.6,23.9,29.2,24.2"/>
<path class="st1" d="M28.9,28.1L28.9,28.1C28.9,28.1,28.9,28.1,28.9,28.1C28.8,28.1,28.8,28.1,28.9,28.1L28.9,28.1
	c-1.5,0.9-2,2.8-1.2,4.3c0,0,0,0,0,0.1c0,0,0,0,0,0.1c0.9,1.5,2.8,2,4.3,1.2h0c0,0,0,0,0,0s0,0,0,0l0,0c1.5-0.9,2-2.8,1.1-4.3
	c0,0,0,0,0-0.1c0,0,0,0,0-0.1C32.3,27.7,30.4,27.2,28.9,28.1"/>
<path class="st1" d="M43.1,30.1c-0.5,0.9-0.2,2.1,0.7,2.7c0.9,0.5,2.1,0.2,2.7-0.7c0.5-0.9,0.2-2.1-0.7-2.7
	C44.8,28.8,43.6,29.1,43.1,30.1"/>
<path class="st1" d="M49.7,30.5C49.4,31,49.6,31.7,50,32c0.5,0.3,1.1,0.1,1.4-0.4c0.3-0.5,0.1-1.1-0.4-1.4
	C50.6,29.9,49.9,30.1,49.7,30.5"/>
<path class="st1" d="M37.6,41.4c-0.3,0-0.7,0.1-0.9,0.3l0,0c0,0,0,0,0,0c0,0,0,0,0,0l0,0c-0.3,0.2-0.5,0.4-0.7,0.7
	c-0.6,0.9-0.2,2.1,0.7,2.7c0.6,0.4,1.4,0.3,2,0l0,0c0,0,0,0,0,0c0,0,0,0,0,0v0c0.6-0.3,1-1,1-1.7C39.6,42.2,38.7,41.3,37.6,41.4"/>
<path class="st1" d="M40.5,47.3c-0.2,0-0.3,0.1-0.5,0.1h0c0,0,0,0,0,0l0,0l0,0c-0.1,0.1-0.3,0.2-0.4,0.4c-0.3,0.5-0.1,1.1,0.4,1.4
	c0.3,0.2,0.7,0.2,1,0l0,0c0,0,0,0,0,0c0,0,0,0,0,0l0,0c0.3-0.2,0.5-0.5,0.5-0.9C41.6,47.7,41.1,47.3,40.5,47.3"/>
<path class="st1" d="M45.2,37.5c-0.1,0-0.2,0-0.2,0l-0.1,0c0,0-0.1,0-0.1,0c-1,0.2-1.8,0.1-2.4-0.2c-0.8-0.4-1.3-1.3-1.6-2.6
	c0,0,0,0,0,0c-0.3-1.2-1.3-2-2.5-2c-1.4,0-2.6,1.2-2.6,2.6c0,0.7,0.3,1.3,0.8,1.8c0.5,0.5,1.1,0.8,1.8,0.7c0.3,0,0.6-0.1,0.9-0.2
	c0,0,0,0,0.1,0c3-1,4,0.5,4.5,1.9c0,0,0,0,0.1,0.1c0.2,0.7,0.8,1.1,1.5,1.1c0.9,0,1.6-0.7,1.6-1.6C46.8,38.2,46.1,37.5,45.2,37.5"/>
<path class="st1" d="M46.4,21.6c-0.3-0.4-0.8-0.7-1.3-0.7c-0.7,0-1.3,0.4-1.5,1.1c0,0,0,0.1-0.1,0.1C43,23.6,42,25,39,24
	c0,0,0,0-0.1,0c-0.3-0.1-0.6-0.2-0.9-0.2c-0.7,0-1.3,0.3-1.8,0.8c-0.5,0.5-0.8,1.1-0.8,1.8c0,0.5,0.1,0.9,0.4,1.3l0,0c0,0,0,0,0,0
	c0,0,0,0,0,0l0,0c0.2,0.4,0.5,0.7,0.9,0.9c0.6,0.3,1.3,0.4,2,0.3c0.7-0.2,1.2-0.6,1.6-1.2c0.1-0.2,0.2-0.5,0.3-0.8c0,0,0,0,0-0.1
	c0.6-3.1,2.4-3.2,3.9-2.9c0,0,0.1,0,0.1,0c0.7,0.1,1.4-0.2,1.7-0.8C46.7,22.7,46.6,22.2,46.4,21.6L46.4,21.6
	C46.4,21.7,46.4,21.7,46.4,21.6C46.4,21.7,46.4,21.6,46.4,21.6L46.4,21.6z"/>
<path class="st1" d="M23.4,41.4c-1.1,0-2,0.9-2,1.9c0,1.1,0.9,2,1.9,2c1.1,0,2-0.9,2-1.9C25.4,42.3,24.5,41.4,23.4,41.4"/>
<path class="st1" d="M21.9,37.7C21.9,37.7,22,37.7,21.9,37.7c0.4,0.1,0.7,0.2,0.9,0.2c0.7,0,1.3-0.3,1.8-0.8
	c0.5-0.5,0.8-1.1,0.8-1.8c0-0.5-0.1-0.9-0.4-1.3l0,0c0,0,0,0,0,0c0,0,0,0,0,0l0,0c-0.2-0.4-0.5-0.7-0.9-0.9c-0.6-0.3-1.3-0.4-2-0.3
	c-0.7,0.2-1.2,0.6-1.6,1.2c-0.1,0.2-0.2,0.5-0.3,0.8c0,0,0,0,0,0.1c-0.6,3.1-2.4,3.2-3.9,2.9c0,0-0.1,0-0.1,0
	c-0.7-0.1-1.4,0.2-1.7,0.8c-0.3,0.5-0.2,1,0,1.5l0,0c0,0,0,0,0,0s0,0,0,0l0,0c0.3,0.4,0.8,0.7,1.3,0.7c0.7,0,1.3-0.4,1.5-1.1
	c0,0,0-0.1,0.1-0.1C18,38.2,19,36.7,21.9,37.7"/>
<path class="st1" d="M20.6,47.3c-0.6,0-1,0.5-1,1c0,0.6,0.5,1,1,1c0.6,0,1-0.5,1-1S21.2,47.3,20.6,47.3"/>
<path class="st1" d="M31.7,37.5c-1.2-0.7-2.8-0.3-3.5,0.9c-0.6,1-0.4,2.4,0.5,3.2c0,0,0,0,0,0c1,0.9,1.5,1.8,1.5,2.7
	c0,0.7-0.3,1.4-1,2.2c0,0,0,0.1-0.1,0.1L29,46.7c-0.1,0.1-0.1,0.1-0.2,0.2c-0.5,0.8-0.2,1.8,0.6,2.2c0.8,0.5,1.8,0.2,2.2-0.6
	c0.3-0.6,0.3-1.3-0.2-1.9c0,0,0-0.1,0-0.1c-1-1.2-1.8-2.8,0.6-4.9c0,0,0,0,0-0.1c0.2-0.2,0.4-0.4,0.6-0.7c0.4-0.6,0.4-1.3,0.3-2
	C32.7,38.4,32.3,37.8,31.7,37.5"/>
</svg>
